# xmcd CD database file
#
# Track frame offsets:
#	150
#	18525
#	38715
#	51107
#	68460
#	84892
#	101957
#
# Disc length: 1641 seconds
#
# Revision: 4
# Processed by: cddbd v1.5.1PL0 Copyright (c) Steve Scherf et al.
# Submitted via: CDex 1.51
#
DISCID=4e066707
DTITLE=山崎まさよし - STEREO　?
DYEAR=1997
DGENRE=JPop
TTITLE0=Good morning
TTITLE1=あじさい
TTITLE2=ピアノ
TTITLE3=長男
TTITLE4=ピンボール
TTITLE5=星に願いを
TTITLE6=振り向かない(prototype '94)
EXTD=YEAR: 1997
EXTT0=
EXTT1=
EXTT2=
EXTT3=
EXTT4=
EXTT5=
EXTT6=
PLAYORDER=
